<?xml version="1.0" encoding="utf-8"?>
<!-- Generator: Adobe Illustrator 22.0.1, SVG Export Plug-In . SVG Version: 6.00 Build 0)  -->
<svg version="1.1" xmlns="http://www.w3.org/2000/svg" xmlns:xlink="http://www.w3.org/1999/xlink" x="0px" y="0px"
	 viewBox="0 0 799.9 799.9" style="enable-background:new 0 0 799.9 799.9;" xml:space="preserve">
<style type="text/css">
	.st0{display:none;}
	.st1{display:inline;fill-rule:evenodd;clip-rule:evenodd;fill:url(#SVGID_1_);}
	.st2{fill:#333333;}
	.st3{font-family:'BloggerSans-Bold';}
	.st4{font-size:24.031px;}
	.st5{fill:none;}
	.st6{font-family:'BloggerSans';}
	.st7{font-size:12.9034px;}
	.st8{font-size:18.6239px;}
	.st9{font-size:10.0001px;}
	.st10{display:inline;fill:#4E6273;}
	.st11{display:none;fill-rule:evenodd;clip-rule:evenodd;fill:#4E6273;}
	.st12{display:inline;fill:#EAEDEC;}
	.st13{display:none;fill:#4E6273;}
	.st14{fill:#00BC74;}
	.st15{fill:#36A7CC;}
	.st16{fill:#F9D35A;}
	.st17{fill:#60707C;}
	.st18{fill:none;stroke:#005560;stroke-miterlimit:10;}
	.st19{display:none;fill:#2D2D2D;}
	.st20{display:none;fill:#323232;}
	.st21{fill-rule:evenodd;clip-rule:evenodd;fill:#FFFFFF;}
	.st22{display:none;fill-rule:evenodd;clip-rule:evenodd;fill:#EAEDEC;}
	.st23{display:inline;fill:none;}
	.st24{display:inline;}
	.st25{fill:#4E6273;}
	.st26{font-size:39.9557px;}
	.st27{display:inline;fill:#00758E;}
	.st28{display:none;fill:#1F1F1F;}
	.st29{display:none;fill:none;stroke:#2A2A29;stroke-width:6;stroke-miterlimit:10;}
	.st30{display:none;fill:#00758E;stroke:#00758E;stroke-miterlimit:10;}
	.st31{fill:#F2F2F2;}
	.st32{font-family:'Cambria-Bold';}
	.st33{font-size:34px;}
</style>
<g id="BACKGROUND" class="st0">
	<radialGradient id="SVGID_1_" cx="399.9594" cy="399.9599" r="565.6237" gradientUnits="userSpaceOnUse">
		<stop  offset="0" style="stop-color:#FFFFFF"/>
		<stop  offset="1" style="stop-color:#CFD6D5"/>
	</radialGradient>
	<rect x="0" class="st1" width="799.9" height="799.9"/>
</g>
<g id="OBJECTS">
	<g>
		<g>
			<text transform="matrix(1 0 0 1 102.1289 607.206)" class="st2 st3 st4">YOUR TEXT HERE</text>
			<rect x="58.5" y="617" class="st5" width="255.3" height="78.4"/>
			<text transform="matrix(1 0 0 1 77.7305 626.207)"><tspan x="0" y="0" class="st2 st6 st7">Lorem ipsum dolor sit amet, consectetur </tspan><tspan x="-2.4" y="16.8" class="st2 st6 st7">adipiscing elit. Morbi fermentum justo eu </tspan><tspan x="-11.3" y="33.5" class="st2 st6 st7">molestie rhoncus. Proin ante justo, dictum at </tspan><tspan x="5.9" y="50.3" class="st2 st6 st7">sapien et, molestie sollicitudin magna. </tspan></text>
		</g>
	</g>
	<g>
		<g>
			<g>
				<text transform="matrix(1 0 0 1 615.3809 589.7646)" class="st2 st3 st8">Соціальні акаунти</text>
				<rect x="615.4" y="597.4" class="st5" width="159.3" height="60.7"/>
				<text transform="matrix(1 0 0 1 615.3809 604.4892)"><tspan x="0" y="0" class="st2 st6 st9">Lorem ipsum dolor sit amet, </tspan><tspan x="0" y="13" class="st2 st6 st9">consectetur adipiscing elit. Morbi </tspan><tspan x="0" y="26" class="st2 st6 st9">fermentum justo eu molestie rhoncus. </tspan></text>
			</g>
			<g>
				<text transform="matrix(1 0 0 1 615.3809 443.0576)" class="st2 st3 st8">Поштові звернення</text>
				<rect x="615.4" y="450.7" class="st5" width="159.3" height="60.7"/>
				<text transform="matrix(1 0 0 1 615.3809 457.7822)"><tspan x="0" y="0" class="st2 st6 st9">Lorem ipsum dolor sit amet, </tspan><tspan x="0" y="13" class="st2 st6 st9">consectetur adipiscing elit. Morbi </tspan><tspan x="0" y="26" class="st2 st6 st9">fermentum justo eu molestie rhoncus. </tspan></text>
			</g>
			<g>
				<text transform="matrix(1 0 0 1 615.3809 303.2558)" class="st2 st3 st8">Вхідні дзвінки</text>
				<rect x="615.4" y="310.9" class="st5" width="159.3" height="60.7"/>
				<text transform="matrix(1 0 0 1 615.3809 317.9804)"><tspan x="0" y="0" class="st2 st6 st9">Lorem ipsum dolor sit amet, </tspan><tspan x="0" y="13" class="st2 st6 st9">consectetur adipiscing elit. Morbi </tspan><tspan x="0" y="26" class="st2 st6 st9">fermentum justo eu molestie rhoncus. </tspan></text>
			</g>
			<g>
				<text transform="matrix(1 0 0 1 615.3809 149.957)" class="st2 st3 st8">Чат БОТ</text>
				<rect x="615.4" y="157.6" class="st5" width="159.3" height="60.7"/>
				<text transform="matrix(1 0 0 1 615.3809 164.6816)"><tspan x="0" y="0" class="st2 st6 st9">Lorem ipsum dolor sit amet, </tspan><tspan x="0" y="13" class="st2 st6 st9">consectetur adipiscing elit. Morbi </tspan><tspan x="0" y="26" class="st2 st6 st9">fermentum justo eu molestie rhoncus. </tspan></text>
			</g>
		</g>
	</g>
	<g>
		<g class="st0">
			<path class="st10" d="M526.7,319c-2.8-2.4-6.2-3.5-9.6-3.5v2.8c2.8,0,5.5,0.9,7.8,2.8c5.1,4.3,5.8,12,1.5,17.1
				c-2.4,2.9-5.8,4.3-9.3,4.3v2.8c4.3,0,8.5-1.8,11.4-5.3C533.9,333.8,533,324.3,526.7,319z M517.1,315.5c-4.3,0-8.5,1.8-11.4,5.3
				c-5.3,6.3-4.5,15.8,1.8,21.1c2.8,2.4,6.2,3.5,9.6,3.5v-2.8c-2.8,0-5.5-0.9-7.8-2.8l0,0c-5.1-4.3-5.8-12-1.5-17.1
				c2.4-2.9,5.8-4.3,9.3-4.3V315.5z"/>
			
				<rect x="496.6" y="344.2" transform="matrix(0.6435 -0.7655 0.7655 0.6435 -85.4009 509.1472)" class="st10" width="14.5" height="4"/>
			<path class="st10" d="M497.1,359.3c-1.1,1.4-3.2,1.5-4.6,0.4c-1.4-1.1-1.5-3.2-0.4-4.6l8.8-10.5c1.1-1.4,3.2-1.5,4.6-0.4
				c1.4,1.1,1.5,3.2,0.4,4.6L497.1,359.3z"/>
		</g>
		<path class="st11" d="M534.1,412.4h-22.4v1.1l0,0c0.3,0,0.6,0.3,0.6,0.6c0,0.3-0.3,0.6-0.6,0.6l0,0v1h21.5v23.1h-21.5v1.4h1v2h-1
			v1.7h22.4c0.9,0,1.7-0.7,1.7-1.7v-28.3C535.8,413.1,535,412.4,534.1,412.4L534.1,412.4z M511.7,450.5v-1.1h6.5v-0.8h-6.5v-1.1l0,0
			l32.4-0.9l-8.4-2.5h-24v2.5h32.4v0.9h-32.4h32.4v1.9c0,0.7-0.5,1.2-1.2,1.2H511.7z M511.7,412.4h-22.4c-0.9,0-1.7,0.7-1.7,1.7
			v28.3c0,0.9,0.7,1.7,1.7,1.7h22.4v2.5h-32.4v0.9h32.4v1.1h-6.5v0.8h6.5v1.1h-31.2c-0.7,0-1.2-0.5-1.2-1.2v-1.9h32.4l-32.4-0.9
			l8.4-2.5h24v-1.7h-1v-2h1v-1.4h-21.5v-23.1h21.5v-1c-0.3,0-0.6-0.3-0.6-0.6c0-0.3,0.3-0.6,0.6-0.6V412.4z"/>
		<g class="st0">
			<path class="st12" d="M517.8,541.1L517.8,541.1c-0.5,0.3-0.8,0.8-0.8,1.3v6.9h-10.6v-6.8c0-0.6-0.3-1.1-0.8-1.4
				c-3.6-2.1-6.1-6-6.1-10.4c0-3.3,1.3-6.3,3.5-8.5c2.2-2.2,5.2-3.5,8.5-3.5c3.3,0,6.3,1.3,8.5,3.5c2.2,2.2,3.5,5.2,3.5,8.5
				C523.6,535.2,521.3,539,517.8,541.1z"/>
			<path class="st10" d="M525.3,537.2c0.9-1.9,1.4-4.1,1.4-6.4c0-2.3-0.5-4.5-1.4-6.4V537.2L525.3,537.2z M525.3,546.4V543
				c0.4,0,0.7,0.1,1,0.4l0,0l4.8,4.8c0.5,0.5,0.5,1.4,0,2c-0.5,0.5-1.4,0.5-2,0L525.3,546.4L525.3,546.4z M525.3,518.7v-3.4l3.8-3.8
				c0.5-0.5,1.4-0.5,2,0c0.5,0.6,0.5,1.4,0,2l-4.8,4.8l0,0C526.1,518.5,525.7,518.7,525.3,518.7L525.3,518.7z M537.7,529.4
				L537.7,529.4H531c-0.8,0-1.4,0.6-1.4,1.4c0,0.8,0.6,1.4,1.4,1.4h6.8c0.8,0,1.4-0.6,1.4-1.4C539.1,530.1,538.5,529.4,537.7,529.4z
				 M511.6,562.9h1.1c4.1,0,7.5-3.4,7.5-7.5v-12.1c2.2-1.5,4-3.6,5.2-6.1v-12.8c-2.4-5.1-7.6-8.7-13.7-8.7v3.1
				c3.3,0,6.3,1.3,8.5,3.5c2.2,2.2,3.5,5.2,3.5,8.5c0,4.4-2.3,8.2-5.8,10.3l0,0c-0.5,0.3-0.8,0.8-0.8,1.3v6.9h-5.4V562.9
				L511.6,562.9z M525.3,515.3v3.4c-0.4,0-0.7-0.1-1-0.4c-0.6-0.5-0.6-1.4,0-2L525.3,515.3L525.3,515.3z M525.3,543v3.4l-1-1
				c-0.6-0.5-0.6-1.4,0-2C524.6,543.2,525,543,525.3,543L525.3,543z M511.6,513v-9.6c0,0,0.1,0,0.1,0c0.8,0,1.4,0.6,1.4,1.4v6.8
				c0,0.8-0.6,1.4-1.4,1.4l0,0C511.7,513,511.7,513,511.6,513z M511.6,515.7c-6,0-11.1,3.5-13.6,8.5v13.3c1.2,2.5,3.1,4.5,5.3,6
				v11.9c0,4.1,3.3,7.5,7.5,7.5h0.8v-13.5h-5.1v-6.8c0-0.6-0.3-1.1-0.8-1.4c-3.6-2.1-6.1-6-6.1-10.4c0-3.3,1.3-6.3,3.5-8.5
				c2.2-2.2,5.2-3.5,8.5-3.5l0,0V515.7L511.6,515.7L511.6,515.7z M511.6,503.5v9.6c-0.7-0.1-1.3-0.7-1.3-1.4v-6.8
				C510.3,504.1,510.9,503.5,511.6,503.5L511.6,503.5z M498,546.5V543c0.4,0,0.8,0.1,1.1,0.4c0.5,0.5,0.5,1.4,0,2L498,546.5
				L498,546.5z M498,518.7v-3.5l1.1,1.1c0.5,0.5,0.5,1.4,0,2C498.9,518.6,498.4,518.7,498,518.7z M498,524.2c-1,2-1.5,4.3-1.5,6.6
				c0,2.4,0.5,4.6,1.5,6.6V524.2L498,524.2z M498,515.2v3.5c-0.3,0-0.6-0.2-0.9-0.4l0,0l-4.8-4.8c-0.6-0.5-0.6-1.4,0-2
				c0.5-0.5,1.4-0.5,2,0L498,515.2L498,515.2z M498,543v3.5l-3.7,3.7c-0.5,0.5-1.4,0.5-2,0c-0.6-0.5-0.6-1.4,0-2l4.8-4.8l0,0
				C497.4,543.2,497.7,543.1,498,543L498,543z M493.9,530.9L493.9,530.9c0-0.8-0.6-1.4-1.4-1.4h-6.8c-0.8,0-1.4,0.6-1.4,1.4
				c0,0.8,0.6,1.4,1.4,1.4h6.8C493.3,532.3,493.9,531.6,493.9,530.9z"/>
		</g>
		<path class="st13" d="M511.7,217.5c0.7,0,1.4,0,2.2,0.1l1-3.2l6.8,2.1l-1,3.2c2.5,1.3,4.6,3,6.2,5.1l3-1.6l3.3,6.2l-3,1.6
			c0.8,2.5,1.1,5.3,0.8,8l3.2,1l-2.1,6.8l-3.2-1c-1.3,2.5-3,4.6-5.1,6.2l1.6,3l-6.2,3.3l-1.6-3c-1.9,0.6-3.8,0.9-5.8,0.9v-5.1
			c6.1,0,11.8-4,13.7-10.1c2.3-7.6-2-15.5-9.5-17.8c-1.4-0.4-2.8-0.6-4.2-0.6V217.5z M499.7,221.7l-1.6-3l6.2-3.3l1.6,3
			c1.9-0.6,3.8-0.9,5.8-0.9v5.1c-6.1,0-11.8,4-13.7,10.1c-2.3,7.6,2,15.5,9.5,17.8l0,0c1.4,0.4,2.8,0.6,4.2,0.6v5.1
			c-0.7,0-1.4,0-2.2-0.1l-1,3.2l-6.8-2.1l1-3.2c-2.5-1.3-4.6-3-6.2-5.1l-3,1.6l-3.3-6.2l3-1.6c-0.8-2.5-1.1-5.3-0.8-8l-3.2-1
			l2.1-6.8l3.2,1C495.8,225.5,497.6,223.4,499.7,221.7z"/>
	</g>
	<g>
		<g>
			<path class="st14" d="M464.6,303.2c-7.6-25.9-18.7-50.3-32.8-72.6L186.4,383.8L464.6,303.2z"/>
			<path class="st15" d="M186.1,384h2.7h226.6c0-22.2-3.2-43.6-9-63.9l-219.9,63.8L186.1,384z"/>
			<path class="st16" d="M358.6,433.3c4.5-15.6,7-32.2,7-49.2H188.8L358.6,433.3z"/>
			<path class="st17" d="M406.1,519.8c12.4-19.8,22.2-41.4,28.8-64.4L188.8,384L406.1,519.8z"/>
		</g>
		<g>
			<g>
				<line class="st18" x1="188.8" y1="384" x2="687.2" y2="695.4"/>
				<line class="st18" x1="186.1" y1="384" x2="684.1" y2="73"/>
				<line class="st18" x1="188.8" y1="384" x2="684.7" y2="527.8"/>
				<line class="st18" x1="185.8" y1="384" x2="684.9" y2="239.3"/>
				<line class="st18" x1="185.8" y1="384" x2="684.9" y2="384"/>
			</g>
			<g>
				
					<ellipse transform="matrix(3.523243e-02 -0.9994 0.9994 3.523243e-02 588.8839 755.9302)" class="st19" cx="686" cy="73" rx="10.7" ry="10.7"/>
				<circle class="st19" cx="686" cy="239.3" r="10.7"/>
				
					<ellipse transform="matrix(0.9996 -2.937311e-02 2.937311e-02 0.9996 -10.9845 20.3147)" class="st19" cx="686" cy="384" rx="10.7" ry="10.7"/>
				
					<ellipse transform="matrix(0.1602 -0.9871 0.9871 0.1602 55.0686 1120.3933)" class="st19" cx="686" cy="527.8" rx="10.7" ry="10.7"/>
				
					<ellipse transform="matrix(0.1602 -0.9871 0.9871 0.1602 -110.3341 1261.1185)" class="st20" cx="686" cy="695.4" rx="10.7" ry="10.7"/>
			</g>
		</g>
	</g>
	<g>
		<ellipse transform="matrix(0.16 -0.9871 0.9871 0.16 -223.2789 505.7125)" class="st21" cx="185.5" cy="384" rx="124" ry="124"/>
		
			<ellipse transform="matrix(0.1599 -0.9871 0.9871 0.1599 -223.2673 505.7516)" class="st22" cx="185.5" cy="384" rx="108" ry="108"/>
		<g class="st0">
			<rect x="41.4" y="352.5" class="st23" width="288.2" height="114.3"/>
			<text transform="matrix(1 0 0 1 94.1104 380.8603)" class="st24"><tspan x="0" y="0" class="st25 st3 st26">COLORFUL</tspan><tspan x="9.1" y="40" class="st25 st3 st26">DIAGRAM</tspan></text>
		</g>
		<g class="st0">
			<path class="st27" d="M82.2,517.4l0.5,0l0.4,0l0.4,0.1l0.4,0.1l0.4,0.1l0.4,0.1l0.4,0.1l0.4,0.2l0.4,0.2l0.4,0.2l0.4,0.2l0.4,0.2
				l0.3,0.2l0.3,0.3l0.3,0.3l0.3,0.3l0.3,0.3l0.3,0.3l0.3,0.3l0.2,0.3l0.2,0.4L90,522l0.2,0.4l0.2,0.4l0.2,0.4l0.1,0.4l0.1,0.4
				l0.1,0.4l0.1,0.4l0.1,0.4l0,0.4l0,0.5l0,0l0,0.5l0,0.4l-0.1,0.4l-0.1,0.4l-0.1,0.4l-0.1,0.4l-0.1,0.4l-0.2,0.4l-0.2,0.4l-0.2,0.4
				l-0.2,0.4l-0.2,0.4l-0.2,0.3l-0.3,0.3l-0.3,0.3l-0.3,0.3l-0.3,0.3l-0.3,0.3l-0.3,0.3l-0.3,0.2l-0.4,0.2l-0.4,0.2l-0.4,0.2
				l-0.4,0.2l-0.4,0.2l-0.4,0.1l-0.4,0.1l-0.4,0.1l-0.4,0.1l-0.4,0.1l-0.4,0l-0.5,0l0,0l-0.5,0l-0.4,0l-0.4-0.1l-0.4-0.1l-0.4-0.1
				l-0.4-0.1l-0.4-0.1l-0.4-0.2l-0.4-0.2l-0.4-0.2l-0.4-0.2l-0.4-0.2l-0.3-0.2l-0.3-0.3l-0.3-0.3l-0.3-0.3l-0.3-0.3l-0.3-0.3
				l-0.3-0.3l-0.2-0.3l-0.2-0.4l-0.2-0.4l-0.2-0.4l-0.2-0.4l-0.2-0.4l-0.1-0.4l-0.1-0.4l-0.1-0.4l-0.1-0.4l-0.1-0.4l0-0.4l0-0.5l0,0
				l0-0.5l0-0.4l0.1-0.4l0.1-0.4l0.1-0.4l0.1-0.4l0.1-0.4l0.2-0.4l0.2-0.4l0.2-0.4l0.2-0.4l0.2-0.4l0.2-0.3l0.3-0.3l0.3-0.3L76,520
				l0.3-0.3l0.3-0.3l0.3-0.3l0.3-0.2l0.4-0.2l0.4-0.2l0.4-0.2l0.4-0.2l0.4-0.2l0.4-0.1l0.4-0.1l0.4-0.1l0.4-0.1l0.4-0.1l0.4,0
				L82.2,517.4L82.2,517.4L82.2,517.4z M164.5,527.4H82.2V525h82.2l1.1,0.6L164.5,527.4L164.5,527.4z M81,525.1v-82.2h2.4v82.2
				l-0.6,1.1L81,525.1L81,525.1z M164.5,525h0.7l0.3,0.6L164.5,525L164.5,525z M184.4,567l-21-40.2l2.1-1.1l21,40.2L184.4,567
				L184.4,567z M190.6,562.7l-0.3,13l-10.8-7.2L190.6,562.7z"/>
		</g>
	</g>
	<path class="st28" d="M185.5,258c4.7,0,9.4,0.3,14.1,0.8l6.4-20.9l44.1,13.4l-6.4,20.9c16,8.3,29.7,19.7,40.5,33.3l19.3-10.3
		l21.7,40.7l-19.3,10.3c5.3,16.6,7.1,34.3,5.1,52.2l20.9,6.4l-13.4,44.1l-20.9-6.4c-8.3,16-19.7,29.7-33.3,40.5l10.3,19.3
		l-40.7,21.7l-10.3-19.3c-12.2,3.9-25.1,5.9-38.1,5.9v-33c40,0,77-25.9,89.3-66.2c15-49.3-12.8-101.4-62.1-116.4
		c-9-2.7-18.2-4-27.1-4.1V258z M106.6,285.6l-10.3-19.3l40.7-21.7l10.3,19.3c12.2-3.9,25.1-5.9,38.1-5.9v33c-40,0-77,25.9-89.3,66.2
		c-15,49.3,12.8,101.4,62.1,116.4l0,0c9,2.7,18.2,4.1,27.1,4.1v33c-4.7,0-9.4-0.3-14.1-0.8l-6.4,20.9l-44.1-13.4l6.4-20.9
		c-16-8.3-29.7-19.7-40.5-33.3l-19.3,10.3l-21.7-40.7L65,422.5c-5.3-16.5-7.1-34.3-5.1-52.2L39,363.9l13.4-44.1l20.9,6.4
		C81.6,310.1,93.1,296.4,106.6,285.6z"/>
	<circle class="st29" cx="185.8" cy="385.5" r="107.7"/>
	<circle class="st30" cx="190.9" cy="389.5" r="107.5"/>
	<path class="st2" d="M514.8,210.8c-14.1,0-25.5,11.4-25.5,25.5c0,14.1,11.4,25.5,25.5,25.5c14.1,0,25.5-11.4,25.5-25.5
		C540.3,222.2,528.9,210.8,514.8,210.8z M527.3,228.3l-4.2,19.8c-0.3,1.4-1.1,1.7-2.3,1.1l-6.4-4.7l-3.1,3c-0.3,0.3-0.6,0.6-1.3,0.6
		l0.5-6.5l11.8-10.7c0.5-0.5-0.1-0.7-0.8-0.3l-14.6,9.2l-6.3-2c-1.4-0.4-1.4-1.4,0.3-2l24.6-9.5
		C526.7,225.9,527.7,226.6,527.3,228.3z"/>
	<path class="st2" d="M513.5,315.1c-15.3,0-27.8,12.4-27.8,27.8v5.2c0,1.3,0.7,2.5,1.9,3.1l1.6,0.8c0.2,6.5,5.6,11.7,12.1,11.7h2.6
		c1.4,0,2.6-1.2,2.6-2.6V342c0-1.4-1.2-2.6-2.6-2.6h-2.6c-3.4,0-6.5,1.4-8.7,3.6v-0.2c0-11.5,9.3-20.8,20.8-20.8
		c11.5,0,20.8,9.3,20.8,20.8v0.2c-2.2-2.3-5.3-3.6-8.7-3.6H523c-1.4,0-2.6,1.2-2.6,2.6v19.1c0,1.4,1.2,2.6,2.6,2.6h2.6
		c6.6,0,11.9-5.2,12.1-11.7l1.6-0.8c1.2-0.6,1.9-1.8,1.9-3.1v-5.2C541.3,327.5,528.8,315.1,513.5,315.1z"/>
	<path class="st2" d="M539.7,532.4c0-13.8-11.2-24.9-24.9-24.9c-13.8,0-24.9,11.2-24.9,24.9c0,12.4,9.1,22.8,21,24.6v-17.4h-6.3
		v-7.2h6.3v-5.5c0-6.2,3.7-9.7,9.4-9.7c2.7,0,5.6,0.5,5.6,0.5v6.1h-3.1c-3.1,0-4.1,1.9-4.1,3.9v4.7h6.9l-1.1,7.2h-5.8V557
		C530.6,555.2,539.7,544.9,539.7,532.4z"/>
	<path class="st2" d="M538.2,424.3c0.4-0.3,1,0,1,0.5v20.5c0,2.7-2.2,4.8-4.8,4.8h-41.7c-2.7,0-4.8-2.2-4.8-4.8v-20.5
		c0-0.5,0.6-0.8,1-0.5c2.2,1.7,5.2,4,15.4,11.4c2.1,1.5,5.7,4.8,9.2,4.8c3.6,0,7.2-3.3,9.3-4.8C533,428.3,535.9,426.1,538.2,424.3z
		 M513.5,437.3c2.3,0,5.7-2.9,7.4-4.2c13.3-9.7,14.3-10.5,17.4-12.9c0.6-0.5,0.9-1.2,0.9-1.9v-1.9c0-2.7-2.2-4.8-4.8-4.8h-41.7
		c-2.7,0-4.8,2.2-4.8,4.8v1.9c0,0.7,0.3,1.4,0.9,1.9c3.1,2.4,4.1,3.2,17.4,12.9C507.8,434.4,511.2,437.3,513.5,437.3L513.5,437.3z"
		/>
	<path class="st2" d="M335.8,421.6L310,406.7c2.6-14.1,2.6-28.5,0-42.6l25.8-14.9c3-1.7,4.3-5.2,3.3-8.5
		c-6.7-21.6-18.2-41.1-33.2-57.3c-2.3-2.5-6.1-3.1-9-1.4l-25.8,14.9c-10.9-9.3-23.3-16.5-36.9-21.3v-29.8c0-3.4-2.4-6.4-5.7-7.1
		c-22.2-5-45-4.7-66.2,0c-3.3,0.7-5.7,3.7-5.7,7.1v29.8c-13.5,4.8-25.9,12-36.9,21.3l-25.8-14.9c-3-1.7-6.7-1.2-9,1.4
		c-15,16.2-26.4,35.7-33.2,57.3c-1,3.3,0.4,6.8,3.3,8.5l25.8,14.9c-2.6,14.1-2.6,28.5,0,42.6l-25.8,14.9c-3,1.7-4.3,5.2-3.3,8.5
		c6.7,21.6,18.2,41.1,33.2,57.3c2.3,2.5,6.1,3.1,9,1.4L120,474c10.9,9.3,23.3,16.5,36.9,21.3v29.8c0,3.4,2.4,6.4,5.7,7.1
		c22.2,5,45,4.7,66.2,0c3.3-0.7,5.7-3.7,5.7-7.1v-29.8c13.5-4.8,25.9-12,36.9-21.3l25.8,14.9c3,1.7,6.7,1.2,9-1.4
		c15-16.2,26.4-35.7,33.2-57.3C340.1,426.9,338.8,423.3,335.8,421.6z M195.6,433.9c-26.7,0-48.5-21.8-48.5-48.5
		c0-26.7,21.8-48.5,48.5-48.5s48.5,21.8,48.5,48.5C244.1,412.2,222.3,433.9,195.6,433.9z"/>
	<circle class="st31" cx="195.6" cy="384.5" r="81.2"/>
	<g>
		<rect x="65.2" y="369.2" class="st5" width="260.8" height="146.1"/>
		<text transform="matrix(0.9981 0 0 1 120.7139 392.9483)" class="st2 st32 st33">SUPPORT</text>
	</g>
	
		<image style="display:none;overflow:visible;" width="639" height="279" xlink:href="F5DEEFA8.jpg"  transform="matrix(0.5 0 0 0.5 123.3268 492.2725)">
	</image>
</g>
<g id="DESIGNED_BY_FREEPIK">
</g>
</svg>
